<svg xmlns="http://www.w3.org/2000/svg" viewBox="0 0 3000 3000" width="3000" height="3000"><g transform="translate(122.39999999999999 578.4) rotate(0.0 1348.8 938.3999999999999) scale(1.7755545316922268 1.7752553916004536)"><svg width="1519.3" height="1057.2" viewBox="0 0 1519.3 1057.2"><path d="M286.9 805.7c-84.1-40.6-244.1-131.4-281.8-87-30.1 43.9 72.5 107.5 281.8 87zm654.3 58.1c50.6-115.6 222.1-212.6 267.2-175.8 37.7 37.8-58.6 154.6-267.2 175.8z" fill="#5b2448"/><path d="M1519.3 390.5c1.9 45.2-131.9 463.4-218.2 562.3-83.6 95.8-152.2 87.8-220.3 46C993.5 945.1 952.6 875 952 874.1s0-.1 0-.2c.4-1.7 3.4-14.7 13.4-35.5 19.2-40.1 64-109.4 164.5-184.6 12.6 11.3 23.5 22.3 32.2 31.5l.3.3c14.2 15.1 22.4 25.5 22.4 25.5l87.4-126c13.3-19.1 19.8-42.1 18.7-65.3-.4-8.6-.4-17.4.5-24.7 4.3-25.9 8.3-32.3 19.3-3.2 8.3 25.1 30.8 25.4 42 18.5 10.8-7.2 17.8-27.7-.2-41.9-9.8-7.2-27.7-5.5-41.4-4.6-21.2-.3-4.4-15.7 10.1-20.8 24.8-8.7 63.6-7.1 85.1 7.6-6.3-12.1-33.5-45.5-43.1-57.2-8-10.1-20.8-31.2-8.9-29.8 27.5 3.4 76.7 50.7 86.1 70.3 1.8-8.8 7.9-71.3 10.2-81.9 2.8-13 8.9-21.7 16.7-12 13.9 17.2 8.9 97.5 8.9 97.5s23.3-50.3 27.7-56.8c5.2-7.5 14.5-11.2 15.4 9.7z" fill="#f4ada2"/><path d="M1111.9 820c.2 1.1 1.4 1.8 2.6 1.6.8-.2 1.5-.7 1.7-1.4 10.3-29.5 34-67.2 68.5-109.1-.3-.4-1.2-1.5-2.8-3.4-35.3 42.7-59.5 81.1-70 111.4zm314.7-352.1c.2 1.1 1.4 1.8 2.6 1.6.8-.2 1.4-.7 1.7-1.4 4-11.2 7.2-22.6 9.5-34.1-.9-1.8-2.2-4.1-3.5-5.9-2.3 12.8-5.8 26.3-10.2 38.7-.1.4-.1.7-.1 1.1zm27.6 10.5c-.1.3-.2.7-.1 1 .2 1.1 1.4 1.8 2.6 1.6.8-.2 1.5-.7 1.7-1.4 4.9-13.5 9.6-24 13.8-33.2 1.5-3.3 2.7-6 4-8.9.1-1 .5-6 .5-12.3-2.1 5.9-5.3 12.3-8.6 19.7-4.2 9.4-8.9 19.9-13.9 33.5zm-43.3-8.4c1.2-.3 2-1.4 1.8-2.5-2.1-8.9-6.5-17.2-6.4-16.8-2.2-1.5-5-3.3-8-4.6 7.1 9.9 10 22.3 10 22.4.3 1.1 1.4 1.8 2.6 1.5zm7.4 29.3c-1.1-.4-2.5.1-3 1.1-16.3 34.1-19.2 59.7-10.6 94.5.3 1.1 1.4 1.7 2.6 1.5h.1c1.2-.3 2-1.4 1.7-2.5-8.3-33.9-5.5-58.8 10.4-91.9.4-1-.1-2.2-1.2-2.7z" fill="#9b3c82"/><path d="M1184.9 711.1c-67 19.1-155.1 88.9-234.4 171.6 3.4-58.1 132.2-181.3 202.8-220.9 6.3 8 17.2 19.9 31.6 49.3z" fill="#9a3c81"/><path d="M1203.1 684.9c-67.7-30.8-220.5 126.7-252.6 197.8-1.4 32.1 0 144.9 0 144.9l-637.3.5 36-85.5 39.4-75.2.3-1.4s-.4-.2-1.2-.7c-2.6-1.6-9.5-5.7-19.7-11.6-4.2-2.5-9-5.2-14.2-8.2-7.5-4.2-15.9-9-25.2-14.2-1-.5-2.1-1.2-3.1-1.8-7.5-4.2-15.6-8.6-24-13.1-2.1-1.2-4.2-2.3-6.3-3.4-4.9-2.7-10-5.3-15.2-8.1-2.3-1.2-4.6-2.5-6.9-3.6-40-21-85.4-43.3-127.4-60.7h-.1C81 714.1 24.1 699.1 5.5 718.4l-.1.1c3.6-4.7 98.5-125.4 218.1-221.4 58.5-47 122.9-88 185.4-106.6 16.3-5 33.2-8.3 50.1-9.8 5.3-.5 10.7-.7 15.9-.8h3.5c15.8.1 31.5 2.5 46.7 7 1.6.5 3.4 1 5 1.6.3.1.7.2 1 .3 1.5.5 2.9 1 4.4 1.6 1.1.4 2.1.8 3.2 1.3 14.1 5.7 27.3 13.5 39.3 22.9.3.2.5.3.8.5l4.9.1 182.8 10.9c5.6-3.7 22.6-13.1 28.7-16.1l1.3-.6c1-.5 2.1-1 3.1-1.4 1.8-.8 3.6-1.6 5.5-2.4 8.9-3.6 18.1-6.5 27.4-8.6l2.7-.6c.2-.1.3-.1.5-.1 2-.4 3.9-.8 5.9-1.1.5-.1 1.1-.2 1.7-.3 1.3-.2 2.7-.4 4-.6.2 0 .5-.1.8-.1 2.1-.3 4.2-.5 6.3-.8 10.5-1.1 21.1-1.3 31.7-.6 1.4.1 2.7.2 4.2.3.8.1 1.5.1 2.3.2 2.5.2 5 .5 7.5.8 33.2 4.4 69.1 17.1 104.6 42.7 106.9 77.2 199.4 247.8 199.1 248.1z" fill="#f84f46"/><g fill="#fbb5b0"><path d="M717.2 532.4c10.4 12.6 22 18.9 34.5 18.9.8 0 1.6 0 2.5-.1 7.8-.5 14.1-4 18.7-10.5 16.6-23.7 6.5-82.7-1.6-117.9-1.7 1-3.4 2.1-5 3.2 7.8 34.6 17.1 90.2 2.1 111.6-3.6 5.1-8.3 7.8-14.5 8.2-34.9 2.2-55-53.7-64.4-90.4-1.5 0-3.1.1-4.7.1h-1c2.6 10.2 5.9 21.9 10.2 33.5 6.8 18.4 14.6 33 23.2 43.4zm-392 299.9c-.3 0-.7-.1-1-.2-1.4-.5-2.1-2.1-1.5-3.6.5-1.2 46.4-115.9 85.1-175.6.8-1.3 2.5-1.6 3.8-.8s1.6 2.5.8 3.8c-38.5 59.4-86.1 176.4-87.2 176.4z"/><path d="M578.3 474.3c9.2 45.3 25 72.3 46.9 80.3 3.6 1.3 7 2 10.4 2 5.9 0 11.5-2.1 16.8-6.1 21.3-16 31.8-62.3 33.8-95h-5.4c-.8 12.8-2.9 27.1-6.1 40-6 24.8-15 42.7-25.6 50.7-6.8 5.1-14 6.2-22 3.2-43.1-15.7-49.6-114.3-50.5-136-1.6-1.4-3.4-2.7-5.6-4.1 0 .3.5 31.7 7.3 65z"/><path d="M684.8 455.4h-3.1l14 126.7c1.8 0 3.6-.1 5.5-.3l-13.9-126.3c-.9-.1-1.7-.1-2.5-.1z"/><circle cx="676.7" cy="558.8" r="6.2"/><path d="M905.7 806.4c-.9.6-1.2 1.8-.6 2.8l46 72c.6-1.4 1.3-2.8 2.1-4.2l-44.7-70c-.6-.9-1.9-1.2-2.8-.6z"/></g><path d="M844.5 31.7c-16-6.6-34.1-5.7-49 3.1-19.8-53.3-91.2-39.7-98.6 2.1C644.9 1.8 587 61 610 105.2c8.4 16.3 22.8 50.5 16.9 79.2 24.9 9.6 73.6 66.5 73.6 66.5s97.2-100.3 137.9-115.2c50.9-18.5 42.2-89.1 6.1-104z" fill="#5b2448"/><path d="M876.7 297.9c1.2 14.7-6.6 30-22 38.8-40.2 22.7-93.1 10.5-93.1 10.5s-2.1 30.8 4.7 78.9c-6.8 9.6-42.4 31.5-93.7 29.4-44.5-1.8-80-23.9-95.9-41.5 11.9-29 32.1-76.5 59.5-133.3-28.4-3.8-72.5-33.4-65.6-71.9 3.9-22 27.2-39.9 50-33.4 22.2 6.3 30.6 19.5 48.4 38.8 16.6 18 21.4 7.9 32.3-14 9.8-19.4 24.6-36.3 35.7-45.7 25-21.2 71.1-21.8 101.6-18.7.1 23.2 1.6 46.3 4.7 69.2 5.3 40.5 30.6 58.5 33.4 92.9z" fill="#f3aca1"/><path d="m732.9 175.9.1-2.4c.1-.8.1-1.4.2-2.1.2-1.4.5-2.8.9-4.1.8-2.7 1.8-5.3 3.2-7.8 2.9-5.2 7-9.6 11.8-12.9 2.6-1.8 5.4-3.1 8.3-4.2 3-1 6.2-1.6 9.3-1.6 3.1-.1 6.2.4 9.1 1.4 2.9.9 5.6 2.4 7.9 4.4 2.9 2.6 3.1 7 .5 10-.5.5-1.1 1-1.7 1.4l-1.2.7c-2.3 1.3-4.2 2.1-5.9 3-1.7.8-3.2 1.7-4.6 2.4-2.8 1.5-5.2 2.8-7.9 4.4-2.7 1.5-5.5 3.4-8.5 5.5l-4.9 3.4c-.8.6-1.7 1.2-2.7 1.8-2.1 1.5-4.4 2.4-7 2.7-1.3.1-2.7-.1-3.9-.5-1.6-.8-2.8-2.2-3.1-4 .2-.7.1-1.1.1-1.5zm11.9 20c6.6-1.4 22.6-4.4 37.5-12 2.1-1 4.6-.2 5.7 1.8v.1c2.7 5.4 5.5 14.8-5.3 18.7-13.2 4.7-34.5.5-39.2-5.2-.8-1-.5-2.3.4-3 .3-.2.6-.3.9-.4zm90.8-13.3c-6.8.9-11.7.3-24-1.1-2.3-.3-4.4 1.3-4.7 3.6-.8 5.9 2.2 12 11.8 13.1 10.7 1.2 17.4-6.8 19.3-12.7.3-1.2-.3-2.4-1.4-2.7-.4-.2-.7-.2-1-.2z" fill="#5b2448"/><path d="M656.6 284.5c1.3-.3 2.1-1.7 1.8-3s-1.7-2.1-3-1.8c-7.3 1.9-13.6 1.4-19.2 1-.7 1.6-1.6 3.1-2.3 4.7 7.7.8 15.2 1.1 22.7-.9z" fill="#9a3c81"/><path d="M814.8 138.4c-2.3 1.5-4.2 3.4-5.7 5.7-1.9 2.9-1 6.9 1.9 8.8.5.3 1.2.6 1.8.8l1.2.3c2.3.6 4.1.8 5.8 1.2 1.7.3 3.2.7 4.6 1 2.8.7 5.2 1.2 7.9 1.9 2.2.6 4.5 1.3 7.1 2.1-.4-8.1-.6-16.2-.6-24.4-4.8-.5-10-.9-15.4-1.1-.3.1-.6.1-.9.2-2.9.8-5.4 2-7.7 3.5zM709.5 318.6c-7 4.2-8.3 51.9 47.1 68.3 1.9.6 3.7 1 5.3 1.3-.9-22.7-.4-41.1-.4-41.1h.1c.1 0-34.2-10.3-52.1-28.5z" fill="#5b2448"/><circle cx="731.1" cy="246" fill="#e47280" opacity=".52" r="28.2"/><path d="M820.5 258.4c-3.2 2.1-6.9 3.4-10.8 3.4-3.8.2-7.7-.5-11.1-2-3.4-1.6-6.4-4.1-8.6-7.2-2.3-3.1-3.6-6.8-3.9-10.7v-.1c-.1-1.2-1.2-2.1-2.4-2.1-1 .1-1.8.8-2.1 1.8-.8 5 .3 10.1 2.9 14.4 1.3 2.2 2.9 4.1 4.8 5.8 5.7 5.1 13.4 7.4 20.9 6.2 2.5-.3 4.9-1 7.1-2.1 2.3-1 4.4-2.6 6.1-4.5.8-1 .7-2.3-.3-3.1-.7-.4-1.8-.4-2.6.2zm-171.3-12.6c1.4.3 2.7-.5 2.9-1.9.1-.4.1-.9-.1-1.3-13-41.5-49.1-39-49.4-39-1.4.1-2.4 1.3-2.3 2.7s1.3 2.3 2.7 2.3c1.3-.1 32.6-2.1 44.3 35.6.3.8 1 1.4 1.9 1.6z" fill="#9a3c81"/><path d="M816.3 230.8c.5.1 1.1 0 1.6-.3 6.6-4.6 9.8-8.3 10.2-12.3.5-5-3.5-9.2-8.1-14-10.3-10.9-8.3-18.2-8.3-18.3.3-1-.3-2.1-1.3-2.5-1-.3-2.1.2-2.5 1.2-.1.4-3 9.5 9.2 22.2 4.6 4.8 7.3 7.9 7 10.9-.3 2.6-3 5.7-8.5 9.4-.9.6-1.1 1.8-.5 2.7.2.6.7.9 1.2 1z" fill="#5b2448"/><path d="M778.9 44.5c-6.2 9.8-8.4 18.8-8.5 19.2-.3 1.5.5 2.9 2.1 3.3.2.1.4.1.6.1 1.2 0 2.4-.8 2.6-2.1.1-.2 4.6-19.1 19.6-30.4-.7-1.8-1.4-3.5-2.2-5.1-5.4 3.7-10.2 8.8-14.2 15z" fill="#9a3c81"/><path d="M839.9 671c-.1 0-.1 0 0 0 35.2 21.6-12.8 23.5-46 22.5-9.5-.3-17.7-.8-22.5-1.1-2.5-.2-4.1-.3-4.3-.3 56.2 13.4 66.8 30.3 20.3 31.8-46.5 1.4-89.1-7.4-135.1 18.2-97.8 54.5-202.7 235.6-334.8 294.3-128.6 57.2-232.6-14.3-259.7-78.5-28.7-67.6-8-154.7 12.3-208.9 4.4-11.9 8.8-22.2 12.7-30.3 14.6 3.7 75.4 27.3 100.1 36.5 45.1 16.9 55.7 20.6 60.3 22.3 1.7.7 2.6 1 4.2 1.7.3.1.5.2.8.4.1 0 .2.1.3.1 119-97.6 321.3-212.7 513.3-197.3 11.6 1 41.4 5.7 42.7 6.1 51.4 14.8 12.8 25.9-15.1 30.3-7.4 1.2-14.1 1.9-18.1 2h-1c15.2 3.8 40.8 10.1 56.3 16.8 50.3 21.6 34.1 29.4 21.7 32-4.1 1-7.8 1.3-8.4 1.4z" fill="#f4ada2"/><path d="M185.2 827.9c.4.5 1 .7 1.5.7.4 0 .9-.1 1.3-.5l60.5-48.4c-1.6-.7-2.5-1.1-4.2-1.7l-58.9 47c-.8.8-.9 2-.2 2.9zm604.3-209c-7.4 1.2-14.1 1.9-18.1 2-26.2-3.6-56.7-2.3-57-2.3-1.5.1-2.7-1-2.8-2.6 0-1.5 1.1-2.7 2.6-2.8 2-.1 46.8-2 75.3 5.7zm58.9 50.8c-4.2.9-8 1.2-8.5 1.3-34.7-13.5-90.3-21.7-127.4-18.4-1.5.1-2.8-1-2.9-2.5s.9-2.8 2.4-2.9c40.3-3.6 99.5 5.6 134.9 20.8.8.3 1.3 1 1.5 1.7zm-54.5 23.8c-9.5-.3-17.7-.8-22.5-1.1-24.4-4.7-55.7-5.4-56-5.4-1.4-.1-2.7-1.4-2.6-2.8s1.3-2.6 2.8-2.6c2.2.1 55.9 1.3 78.3 11.9z" fill="#9b3c82"/><path d="M69.8 749c59.3 5.9 127.6 21 178.7 30.7-12.2-7-111.4-49.2-165.3-62.5-2.8 6-7.5 16.2-13.4 31.8z" fill="#9a3c81"/></svg></g><g transform="translate(1246.8 1360.8) rotate(0.0 393.0 354.6) scale(1.7990386816205082 1.8087222647283856)"><svg width="436.9" height="392.1" viewBox="0 0 436.9 392.1"><path d="M249.1 392.1H12c-8.6 0-14.4-8.9-11-16.7L162.1 7.2c1.9-4.4 6.4-7.3 11.2-7.2L408 4.6c8.5.2 14.1 8.9 10.7 16.7L260.1 385c-1.9 4.3-6.2 7.1-11 7.1z" fill="#9b3c82"/><path d="M266.3 392.1H29.2c-8.6 0-14.4-8.9-11-16.7L179.3 7.2c1.9-4.4 6.4-7.3 11.2-7.2l234.7 4.6c8.5.2 14.1 8.9 10.7 16.7L277.3 385c-1.9 4.3-6.2 7.1-11 7.1z" fill="#66b0f0"/><path d="M367.6 113.2h-57.2c-4.3 0-6.3-1.7-7.2-3.2s-1.6-4.1.3-8.1L326 49.2c2.4-5.6 7.9-9.2 14-9l57.2 1.2c2 0 3.7 1.1 4.8 2.7 1 1.7 1.2 3.7.4 5.5l-26.6 58.3c-1.4 3.2-4.6 5.3-8.2 5.3zm-27.9-69c-4.4 0-8.3 2.6-10 6.6l-22.5 52.7v.1c-.9 1.8-1.1 3.4-.6 4.3.5.8 1.9 1.3 3.8 1.3h57.2c2 0 3.7-1.2 4.5-2.9L398.7 48c.3-.6.2-1.2-.1-1.7s-.9-.8-1.5-.8L340 44.2h-.3z" fill="#b0dcf7"/></svg></g><g transform="translate(1909.1999999999998 466.79999999999995) rotate(0.0 495.0 387.6) scale(1.7678571428571428 1.7659118866463166)"><svg width="560" height="438.98" viewBox="0 0 560 438.98"><path d="M532.5 327.23H65.81a25 25 0 0 0-23 15.15L2.5 436.48V27.5a25 25 0 0 1 25-25h505a25 25 0 0 1 25 25v274.73a25 25 0 0 1-25 25z" fill="#fff"/><path d="M2.5 439a2.12 2.12 0 0 1-.5-.05 2.49 2.49 0 0 1-2-2.45v-409A27.54 27.54 0 0 1 27.5 0h505A27.54 27.54 0 0 1 560 27.5v274.73a27.54 27.54 0 0 1-27.5 27.5H65.81a22.48 22.48 0 0 0-20.69 13.63L4.8 437.47A2.51 2.51 0 0 1 2.5 439zm25-434A22.52 22.52 0 0 0 5 27.5v396.8l35.53-82.9a27.46 27.46 0 0 1 25.28-16.67H532.5a22.53 22.53 0 0 0 22.5-22.5V27.5A22.52 22.52 0 0 0 532.5 5z" fill="#66b0f0"/><path d="M155.79 104.43A57.5 57.5 0 1 1 98.24 47a57.34 57.34 0 0 1 57.55 57.43z" fill="#76b8f4"/><path d="M123.46 127.45a2.39 2.39 0 0 1-.5 2.4 20.46 20.46 0 0 1-2.7 2.31 35 35 0 0 1-43 0c-1-.8-1.9-1.61-2.8-2.41a2.44 2.44 0 0 1-.6-2.3 36.37 36.37 0 0 1 7.1-11.71 1.08 1.08 0 0 1 1.41-.1 28.54 28.54 0 0 0 16 4.91 28.12 28.12 0 0 0 16.41-5.21 1 1 0 0 1 1.4.2 40 40 0 0 1 7.28 11.91zm-5.9-37.53a19.17 19.17 0 1 1-17.12-17.12 19.18 19.18 0 0 1 17.12 17.12z" fill="#fff"/><path d="M503 210.42H40.79a2.5 2.5 0 1 1 0-5H503a2.5 2.5 0 0 1 0 5zm-50.72 37.41H40.79a2.5 2.5 0 1 1 0-5h411.49a2.5 2.5 0 0 1 0 5zm-205.87 37.42H40.79a2.5 2.5 0 0 1 0-5h205.62a2.5 2.5 0 0 1 0 5z" fill="#66b0f0"/><g fill="#ffcf2d"><path d="m214.13 81.52 6.13 12.42a2.17 2.17 0 0 0 1.63 1.18l13.7 2a2.16 2.16 0 0 1 1.2 3.69l-9.91 9.66a2.18 2.18 0 0 0-.63 1.92l2.34 13.61a2.15 2.15 0 0 1-1.76 2.49 2.1 2.1 0 0 1-1.37-.22l-12.26-6.44a2.16 2.16 0 0 0-2 0l-12.26 6.44a2.16 2.16 0 0 1-2.92-.9 2.2 2.2 0 0 1-.21-1.38l2.34-13.64a2.17 2.17 0 0 0-.62-1.92l-9.92-9.66a2.16 2.16 0 0 1 1.2-3.69l13.7-2a2.15 2.15 0 0 0 1.63-1.18l6.12-12.42a2.18 2.18 0 0 1 2.9-1 2.14 2.14 0 0 1 .97 1.04zm70.45 0 6.12 12.42a2.17 2.17 0 0 0 1.63 1.18l13.7 2a2.16 2.16 0 0 1 1.2 3.69l-9.91 9.66a2.15 2.15 0 0 0-.62 1.92L299 126a2.16 2.16 0 0 1-1.77 2.49 2.1 2.1 0 0 1-1.37-.22l-12.26-6.44a2.16 2.16 0 0 0-2 0l-12.26 6.44a2.16 2.16 0 0 1-3.13-2.28l2.34-13.64a2.17 2.17 0 0 0-.62-1.92L258 100.8a2.16 2.16 0 0 1 1.2-3.69l13.7-2a2.13 2.13 0 0 0 1.63-1.18l6.13-12.42a2.16 2.16 0 0 1 2.89-1 2.21 2.21 0 0 1 1.03 1.01zm70.42 0 6.13 12.42a2.13 2.13 0 0 0 1.62 1.18l13.71 2a2.15 2.15 0 0 1 1.82 2.45 2.12 2.12 0 0 1-.63 1.24l-9.91 9.66a2.18 2.18 0 0 0-.62 1.92l2.36 13.61a2.16 2.16 0 0 1-1.77 2.49 2.1 2.1 0 0 1-1.37-.22l-12.26-6.44a2.16 2.16 0 0 0-2 0l-12.25 6.44a2.16 2.16 0 0 1-2.92-.9 2.21 2.21 0 0 1-.22-1.38l2.31-13.61a2.17 2.17 0 0 0-.62-1.92l-9.92-9.66a2.16 2.16 0 0 1 1.2-3.69l13.7-2a2.13 2.13 0 0 0 1.64-1.17l6.13-12.42a2.16 2.16 0 0 1 3.88 0zm70.46 0 6.13 12.42a2.13 2.13 0 0 0 1.62 1.18l13.71 2a2.16 2.16 0 0 1 1.2 3.69l-9.92 9.66a2.18 2.18 0 0 0-.62 1.92l2.34 13.61a2.16 2.16 0 0 1-1.77 2.49 2.11 2.11 0 0 1-1.37-.22l-12.25-6.44a2.18 2.18 0 0 0-2 0l-12.25 6.44a2.16 2.16 0 0 1-2.92-.9 2.21 2.21 0 0 1-.22-1.38l2.34-13.64a2.17 2.17 0 0 0-.62-1.92l-9.91-9.66a2.16 2.16 0 0 1-.05-3.06 2.21 2.21 0 0 1 1.24-.63l13.71-2a2.13 2.13 0 0 0 1.62-1.18l6.13-12.42a2.16 2.16 0 0 1 3.88 0zm70.44 0 6.1 12.42a2.13 2.13 0 0 0 1.63 1.18l13.7 2a2.16 2.16 0 0 1 1.2 3.69l-9.92 9.66a2.18 2.18 0 0 0-.62 1.92l2.37 13.61a2.16 2.16 0 0 1-1.76 2.49 2.1 2.1 0 0 1-1.37-.22L495 121.86a2.16 2.16 0 0 0-2 0l-12.3 6.44a2.16 2.16 0 0 1-2.92-.9 2.21 2.21 0 0 1-.22-1.38l2.34-13.64a2.17 2.17 0 0 0-.62-1.92l-9.91-9.66a2.16 2.16 0 0 1 1.19-3.69l13.71-2a2.17 2.17 0 0 0 1.63-1.18l6.1-12.41a2.16 2.16 0 0 1 3.88 0z"/></g></svg></g><g transform="translate(846.0 1609.2) rotate(0.0 400.79999999999995 250.79999999999984) scale(1.7617582417582416 1.7730646871686098)"><svg width="455" height="282.9" viewBox="0 0 455 282.9"><path d="M420.6 56.6c-15.5-6.7-41.1-13-56.3-16.8h.1c-26-3.5-55.8-2.2-56.2-2.2-1.5.1-2.8-1.1-2.8-2.6-.1-1.5 1.1-2.8 2.6-2.8 1.9-.1 46.5-2 75 5.6 27.9-4.3 67.2-15.5 15.5-30.3-1.3-.4-31.1-5.1-42.7-6.1C233.3-8.4 106.6 34.9 0 92.9c5.2 7.5 95.9 165.5 113.2 190 46.7-50.9 90.5-98.3 132.9-121.9 46-25.6 88.6-16.8 135.1-18.2s35.9-18.4-20.3-31.8c.2 0 1.5.1 3.5.3-24.3-4.6-54.6-5.2-55-5.2-1.5 0-2.7-1.3-2.6-2.8 0-1.5 1.3-2.7 2.8-2.6 2.3 0 55.7 1.2 78.2 11.8 33.2.9 81.2-.9 45.9-22.5h.1C399 76.4 343.4 68.3 306.4 71.5c-1.5.1-2.8-1-2.9-2.5s1-2.8 2.4-2.9c40.3-3.6 99.6 5.5 134.9 20.8.8.3 1.3 1 1.5 1.7 12.4-2.6 28.6-10.4-21.7-32z" fill="#f4ada2"/><g fill="#9b3c82"><path d="M308.1 32.2c-1.5.1-2.6 1.3-2.6 2.8.1 1.5 1.3 2.6 2.8 2.6.4 0 30.1-1.3 56.2 2.2 3.8-.1 10.7-.8 18.6-2-28.6-7.6-73.1-5.7-75-5.6zm132.7 54.7c-35.4-15.2-94.6-24.4-134.9-20.8-1.5.1-2.5 1.4-2.4 2.9s1.4 2.6 2.9 2.5c37-3.3 92.7 5 127.4 18.5.5 0 4.2-.5 8.6-1.4-.3-.7-.8-1.3-1.6-1.7zm-134.1 16.3c0 1.5 1.2 2.7 2.6 2.8.4 0 27.8.6 52 5.1 4.6.3 16.7 1.2 26.7 1.4-22.5-10.6-76.3-11.9-78.5-12-1.6 0-2.8 1.2-2.8 2.7z"/></g></svg></g></svg>